<svg width="486.20000000000005" height="77.14240057822227" viewBox="0 0 408.4104171486498 64.8" class="looka-1j8o68f"><defs id="SvgjsDefs1443"><linearGradient id="SvgjsLinearGradient1450"><stop id="SvgjsStop1451" stop-color="#905e26" offset="0"></stop><stop id="SvgjsStop1452" stop-color="#f5ec9b" offset="0.5"></stop><stop id="SvgjsStop1453" stop-color="#905e26" offset="1"></stop></linearGradient><linearGradient id="SvgjsLinearGradient1454"><stop id="SvgjsStop1455" stop-color="#905e26" offset="0"></stop><stop id="SvgjsStop1456" stop-color="#f5ec9b" offset="0.5"></stop><stop id="SvgjsStop1457" stop-color="#905e26" offset="1"></stop></linearGradient><linearGradient id="SvgjsLinearGradient1458"><stop id="SvgjsStop1459" stop-color="#905e26" offset="0"></stop><stop id="SvgjsStop1460" stop-color="#f5ec9b" offset="0.5"></stop><stop id="SvgjsStop1461" stop-color="#905e26" offset="1"></stop></linearGradient></defs><g id="SvgjsG1444" featurekey="nameLeftFeature-0" transform="matrix(3.01255206885129,0,0,3.01255206885129,0,-6.1715462178536455)" fill="url(#SvgjsLinearGradient1450)"><path d="M2.68 19.96 c-1.48 0 -2.68 -1.2 -2.68 -2.68 l0 -8.88 c0 -1.48 1.2 -2.68 2.68 -2.68 s2.68 1.2 2.68 2.68 l0 0.8 l-1.9 0 l0 -0.8 c0 -0.42 -0.36 -0.78 -0.78 -0.78 s-0.78 0.36 -0.78 0.78 l0 8.88 c0 0.42 0.36 0.78 0.78 0.78 s0.78 -0.36 0.78 -0.78 l0 -1.28 l1.9 0 l0 1.28 c0 1.48 -1.2 2.68 -2.68 2.68 z M13.454500000000001 20 l-0.72 -4.94 l-2.02 0 l-0.66 4.94 l-1.92 0 l2.16 -14.3 l2.58 0 l2.5 14.3 l-1.92 0 z M10.9745 13.16 l1.48 0 l-0.76 -5.2 z M23.349 20.04 l-2.04 0 l-1.1 -3.02 l-0.44 0 l0 3.02 l-1.9 0 l0 -14.32 l2.98 0 c1.32 0 2.38 1.06 2.38 2.38 l0 6.54 c0 0.86 -0.44 1.6 -1.12 2.02 z M19.769 7.619999999999999 l0 7.5 l1.08 0 c0.26 0 0.48 -0.22 0.48 -0.48 l0 -6.54 c0 -0.26 -0.22 -0.48 -0.48 -0.48 l-1.08 0 z M30.7835 12.46 l-2.76 0 l0 5.64 l2.78 0 l0 1.9 l-4.68 0 l0 -14.28 l4.68 0 l0 1.9 l-2.78 0 l0 2.94 l2.76 0 l0 1.9 z M38.238 12.46 l-2.76 0 l0 5.64 l2.78 0 l0 1.9 l-4.68 0 l0 -14.28 l4.68 0 l0 1.9 l-2.78 0 l0 2.94 l2.76 0 l0 1.9 z M46.5125 20.04 l-2.04 0 l-1.1 -3.02 l-0.44 0 l0 3.02 l-1.9 0 l0 -14.32 l2.98 0 c1.32 0 2.38 1.06 2.38 2.38 l0 6.54 c0 0.86 -0.44 1.6 -1.12 2.02 z M42.9325 7.619999999999999 l0 7.5 l1.08 0 c0.26 0 0.48 -0.22 0.48 -0.48 l0 -6.54 c0 -0.26 -0.22 -0.48 -0.48 -0.48 l-1.08 0 z"></path></g><g id="SvgjsG1445" featurekey="inlineSymbolFeature-0" transform="matrix(1.0125,0,0,1.0125,156.9625,0)" fill="url(#SvgjsLinearGradient1454)"><g xmlns="http://www.w3.org/2000/svg"><g><rect x="26" y="30" width="2" height="23"></rect><rect x="36" y="30" width="2" height="23"></rect><path d="M36,32c-1.42,0-2.16-0.75-2.71-1.29C32.8,30.22,32.56,30,31.99,30c-0.56,0-0.8,0.22-1.29,0.71C30.16,31.25,29.41,32,28,32    s-2.16-0.75-2.71-1.29C24.8,30.22,24.56,30,24,30v-2c1.41,0,2.16,0.75,2.71,1.29C27.2,29.78,27.44,30,28,30s0.8-0.22,1.29-0.71    c0.55-0.55,1.29-1.29,2.71-1.29c1.41,0,2.16,0.75,2.71,1.29C35.19,29.78,35.43,30,36,30c0.56,0,0.8-0.22,1.29-0.71    C37.84,28.75,38.58,28,40,28v2c-0.56,0-0.8,0.22-1.3,0.71C38.16,31.25,37.41,32,36,32z"></path><rect x="31" y="0" width="2" height="6"></rect><rect x="12.62" y="7.61" transform="matrix(0.7071 -0.7071 0.7071 0.7071 -3.5181 12.7353)" width="2" height="6"></rect><rect x="3" y="28" width="6" height="2"></rect><rect x="10.61" y="46.38" transform="matrix(0.7071 -0.7071 0.7071 0.7071 -29.5184 23.5047)" width="6" height="2"></rect><rect x="49.38" y="44.39" transform="matrix(0.7071 -0.7071 0.7071 0.7071 -18.7497 49.501)" width="2" height="6"></rect><rect x="55" y="28" width="6" height="2"></rect><rect x="47.38" y="9.62" transform="matrix(0.7071 -0.7071 0.7071 0.7071 7.2508 38.7365)" width="6" height="2"></rect><path d="M43,54H21c-0.55,0-1-0.45-1-1v-8.02c-5.02-3.77-8-9.71-8-15.98c0-11.03,8.97-20,20-20s20,8.97,20,20    c0,6.27-2.98,12.21-8,15.98V53C44,53.55,43.55,54,43,54z M22,52h20v-7.53c0-0.32,0.16-0.63,0.42-0.81C47.17,40.28,50,34.8,50,29    c0-9.92-8.07-18-18-18s-18,8.08-18,18c0,5.8,2.83,11.28,7.58,14.66c0.26,0.19,0.42,0.49,0.42,0.81V52z"></path><path d="M38,60H26c-1.65,0-3-1.35-3-3v-4c0-0.55,0.45-1,1-1h16c0.55,0,1,0.45,1,1v4C41,58.65,39.65,60,38,60z M25,54v3    c0,0.55,0.45,1,1,1h12c0.55,0,1-0.45,1-1v-3H25z"></path><path d="M36,64h-8c-1.65,0-3-1.35-3-3v-2c0-0.55,0.45-1,1-1h12c0.55,0,1,0.45,1,1v2C39,62.65,37.65,64,36,64z M27,60v1    c0,0.55,0.45,1,1,1h8c0.55,0,1-0.45,1-1v-1H27z"></path></g></g></g><g id="SvgjsG1446" featurekey="nameRightFeature-0" transform="matrix(2.9916898376290177,0,0,2.9916898376290177,221.72448592560932,-5.873126005147331)" fill="url(#SvgjsLinearGradient1458)"><path d="M9.7545 20 l-1.98 0 l-2 -14.28 l1.92 0 l1.04 7.36 l0.96 -7.36 l1.92 0 z M18.909 12.46 l-2.76 0 l0 5.64 l2.78 0 l0 1.9 l-4.68 0 l0 -14.28 l4.68 0 l0 1.9 l-2.78 0 l0 2.94 l2.76 0 l0 1.9 z M26.3435 16.72 l0.08 -11.08 l1.92 0 l-0.12 14.44 l-2.98 0 l-1.62 -11.18 l0 11.18 l-1.92 0 l0 -14.44 l3.1 0 z M38.038 5.68 l0 1.92 l-2.38 0 l0 12.42 l-1.92 0 l0 -12.42 l-2.62 0 l0 -1.92 l6.92 0 z M43.7525 20.04 c-1.62 0 -2.94 -1.32 -2.94 -2.94 l0 -11.36 l1.9 0 l0 11.36 c0 0.58 0.46 1.06 1.04 1.06 s1.04 -0.48 1.04 -1.06 l0 -11.36 l1.9 0 l0 11.36 c0 1.62 -1.32 2.94 -2.94 2.94 z M54.947 20.04 l-2.04 0 l-1.1 -3.02 l-0.44 0 l0 3.02 l-1.9 0 l0 -14.32 l2.98 0 c1.32 0 2.38 1.06 2.38 2.38 l0 6.54 c0 0.86 -0.44 1.6 -1.12 2.02 z M51.367 7.619999999999999 l0 7.5 l1.08 0 c0.26 0 0.48 -0.22 0.48 -0.48 l0 -6.54 c0 -0.26 -0.22 -0.48 -0.48 -0.48 l-1.08 0 z M62.3815 12.46 l-2.76 0 l0 5.64 l2.78 0 l0 1.9 l-4.68 0 l0 -14.28 l4.68 0 l0 1.9 l-2.78 0 l0 2.94 l2.76 0 l0 1.9 z"></path></g></svg>